<svg width="1326" height="415" viewBox="0 0 1326 415" fill="none" xmlns="http://www.w3.org/2000/svg">
<path d="M0 110.653C0 49.5412 49.5412 7.25522e-06 110.653 7.25522e-06H165.98C173.619 7.25522e-06 179.812 6.19266 179.812 13.8317V69.1584C179.812 130.271 130.271 179.812 69.1584 179.812H13.8317C6.19265 179.812 0 173.619 0 165.98V110.653Z" fill="#84D35F"/>
<path d="M414.95 304.297C414.95 365.409 365.409 414.95 304.297 414.95H248.97C241.331 414.95 235.138 408.758 235.138 401.118V345.792C235.138 284.68 284.68 235.138 345.792 235.138H401.119C408.758 235.138 414.95 241.331 414.95 248.97L414.95 304.297Z" fill="#84D35F"/>
<path d="M304.297 2.4184e-06C365.409 5.0897e-06 414.95 49.5412 414.95 110.653V165.98C414.95 173.619 408.758 179.812 401.118 179.812L345.792 179.812C284.68 179.812 235.138 130.271 235.138 69.1584V13.8317C235.138 6.19265 241.331 -3.33912e-07 248.97 0L304.297 2.4184e-06Z" fill="#84D35F"/>
<path d="M110.653 414.95C49.5412 414.95 6.49655e-06 365.409 1.45104e-05 304.297L2.17657e-05 248.97C2.27674e-05 241.331 6.19268 235.138 13.8317 235.138L69.1584 235.138C130.271 235.138 179.812 284.68 179.812 345.792L179.812 401.119C179.812 408.758 173.619 414.95 165.98 414.95H110.653Z" fill="#84D35F"/>
<path d="M712.55 92.2217V140.453H651.678V318.41H603.447V140.453H542.908V92.2217H712.55Z" fill="white"/>
<path d="M747.208 256.541C749.647 260.532 752.53 263.97 755.856 266.852C765.392 275.057 776.923 279.16 790.45 279.16C804.199 279.16 815.73 275.168 825.043 267.185L853.65 300.781C836.131 315.86 815.065 323.4 790.45 323.4C765.614 323.4 744.547 315.749 727.25 300.448C718.38 292.908 711.506 284.26 706.627 274.503C701.749 264.524 699.309 253.547 699.309 241.573C699.309 219.397 706.738 200.216 721.595 184.028C728.248 176.931 736.675 171.055 746.875 166.398C756.854 161.963 767.166 159.746 777.81 159.746C788.454 159.746 798.766 161.963 808.745 166.398C818.723 170.833 827.039 176.71 833.692 184.028C848.993 200.437 856.643 219.619 856.643 241.573C856.643 244.899 856.2 249.888 855.313 256.541H747.208ZM746.21 226.604H809.41C806.749 219.952 802.535 214.519 796.77 210.305C791.004 206.092 784.684 203.985 777.81 203.985C770.936 203.985 764.616 206.092 758.85 210.305C753.084 214.519 748.871 219.952 746.21 226.604Z" fill="white"/>
<path d="M962.1 159.746C966.092 159.746 970.083 160.078 974.075 160.743V206.646C970.083 204.872 966.092 203.985 962.1 203.985C953.895 203.985 946.91 206.868 941.144 212.634C935.379 218.399 932.496 225.385 932.496 233.589V318.41H888.256V233.589C888.256 213.188 895.463 195.78 909.877 181.367C924.291 166.953 941.699 159.746 962.1 159.746Z" fill="white"/>
<path d="M1110.81 164.735H1158.71L1096.17 310.094C1092.18 318.964 1085.31 323.4 1075.55 323.4C1066.01 323.4 1059.25 318.964 1055.26 310.094L992.725 164.735H1040.62L1075.55 245.564L1110.81 164.735Z" fill="white"/>
<path d="M1301.89 183.695C1317.86 199.218 1325.84 218.51 1325.84 241.573C1325.84 264.635 1317.86 283.927 1301.89 299.45C1285.93 315.416 1266.64 323.4 1244.02 323.4C1221.62 323.4 1202.44 315.416 1186.47 299.45C1170.51 283.927 1162.52 264.635 1162.52 241.573C1162.52 218.51 1170.51 199.218 1186.47 183.695C1202.44 167.729 1221.62 159.746 1244.02 159.746C1266.64 159.746 1285.93 167.729 1301.89 183.695ZM1244.02 279.16C1254.44 279.16 1263.31 275.501 1270.63 268.183C1277.95 260.865 1281.6 251.995 1281.6 241.573C1281.6 231.15 1277.95 222.28 1270.63 214.962C1263.31 207.644 1254.44 203.985 1244.02 203.985C1233.82 203.985 1224.95 207.644 1217.41 214.962C1210.09 222.28 1206.43 231.15 1206.43 241.573C1206.43 251.995 1210.09 260.865 1217.41 268.183C1224.95 275.501 1233.82 279.16 1244.02 279.16Z" fill="white"/>
</svg>
